<?xml version="1.0" encoding="UTF-8"?>
<svg width="92" height="92" viewBox="0 0 92 91" xmlns="http://www.w3.org/2000/svg">
 <defs>
  <radialGradient id="b" cx="181.99" cy="41.737" r="13.011" gradientTransform="matrix(1.2978 -1.6449e-7 2.6838e-7 2.1174 86.349 -41.708)" gradientUnits="userSpaceOnUse">
   <stop stop-color="#003c3c" stop-opacity="0" offset="0"/>
   <stop stop-color="#003c3c" stop-opacity=".89179" offset="1"/>
  </radialGradient>
  <radialGradient id="a" cx="156.18" cy="29.037" r="8.7396" gradientTransform="matrix(.77116 -9.2297e-7 1.1275e-6 .94202 176.29 6.615)" gradientUnits="userSpaceOnUse">
   <stop stop-color="#fff" offset="0"/>
   <stop stop-color="#fff" stop-opacity=".50373" offset="1"/>
  </radialGradient>
 </defs>
 <path d="m74.969 46.155a28.5 28.5 0 0 1 -57 0 28.5 28.5 0 1 1 57 0z" fill="#0ff" stroke="#000" stroke-width=".8"/>
 <path d="m73.317 36.412c-0.68718 0.68718 2.0209 7.1773 1.1516 6.7426-2.6368-1.3184-5.3857 1.1536-6 1-0.61666-0.15417-4.9445-3.6111-5.5-2.5-1.3337 2.6675-1.0986 3.9014-3 2-1.3437-1.3437-6.8437-2.8437-5.5-1.5 0.34918 0.34918-2.2904 0.63151-1.4749 2.2626 0.79577 1.5915 5.5806 5.6605 5.9749 7.2374 0.48675 1.947-1.9191 4.5809-0.5 6 7.1964 5.9829-14.089 10.062-7-2 2.345-2.345-0.2933-5.2067 0-5.5 3.0631-3.0631 2.7719-3.4563 1.5-6-1.8469-3.6937-3.2346 0.19135-6-0.5-4.3853-1.0963-3.125-0.99987-4-4.5-0.43871-1.7548-0.5-2.1956-0.5-5.5 0-1.6667 3.7454-2.5093 3-4-2.042-4.084 1.3433-4.6438 4-6.5 0.67566 0.52559 2.1954-2.894 5.1716-2.5 0.33045 0.04374 3.182 0.04044 3.8891-0.11612 11.168 4.978 11.831 9.948 14.788 15.873z" fill="#0f0" fill-rule="evenodd" stroke="#000"/>
 <path d="m29.969 22.655c0.6762 0.3381 5.437 1.6093 7 2 1.377 0.34425 1.9547 4.5906 1.5 5.5-0.22357 0.44713-5.8204 1.8204-7 3-1.5934 1.5934-2.4024 5.1097-2.5 5.5-0.51131 2.0452-3.9548 1.4887-6 2-1.6647 0.41618-1.4704 3.1272-2.5 4.5-1.2356 1.6475-2.8158 0.68425 0 3.5 2.018 2.018 1.9504-0.54964 4 1.5 2.1161 2.1161-0.43694 3.2815 3 5 0.79835 0.39918-3.4077 4.0231 0.5 5 0.98168 0.24542 0.83227 4.8291 1 5.5 0.45258 1.8103 0.0455 1.3431-0.35355 2.9393-3.782-4.8267-9.918-8.3548-10.782-22.086-0.8863-11.398 8.5335-21.206 12.136-23.854z" fill="#0f0" fill-rule="evenodd" stroke="#000"/>
 <path d="m75.133 46.563c0.16873 15.184-14.554 27.275-26.02 28.088 12.318-15.586 19.831-35.481 7.8322-55.1 7.8004 3.0682 16.379 9.8274 18.188 27.012z" fill="url(#b)" opacity=".56716"/>
 <path d="m35.294 42.181c-2.903 1.2656-8.8843 2.6096-11.149 0.39309-2.2949-2.1322-0.75947-7.6451 0.31281-10.587 2.9309-6.8426 11.146-9.6135 15.038-3.7496 2.1688 4.4966 0.48456 11.851-4.2024 13.943z" fill="url(#a)" opacity=".79478"/>
</svg>
